<svg viewBox="0 0 371.4 300.4675" width="5000px" height="4045.0660166548414px" xmlns="http://www.w3.org/2000/svg" xmlns:xlink="http://www.w3.org/1999/xlink" preserveAspectRatio="none"><defs></defs><style>.companyName {fill:#FFFFFF;fill-opacity:1;}.icon1 {fill:#FFFFFF;fill-opacity:1;}.icon2 {fill:#D9D9D9;fill-opacity:1;}.icon3 {fill:#B4B4B4;fill-opacity:1;}.text {fill:#FFFFFF;fill-opacity:1;}</style><g opacity="1" transform="rotate(0 111.42000000000002 0)">
<svg width="148.56" height="148.56" x="111.42000000000002" y="0" version="1.1" preserveAspectRatio="none" viewBox="0 0 46 46">
  <g transform="matrix(1 0 0 1 0 0)" class="icon1"><g transform="translate(0,-1006.3622)"><path style="color:#000000;font-style:normal;font-variant:normal;font-weight:normal;font-stretch:normal;font-size:medium;line-height:normal;text-indent:0;text-align:start;text-decoration:none;text-decoration-line:none;text-decoration-style:solid;text-decoration-color:#000000;letter-spacing:normal;word-spacing:normal;text-transform:none;direction:ltr;block-progression:tb;writing-mode:lr-tb;baseline-shift:baseline;text-anchor:start;white-space:normal;clip-rule:nonzero;display:inline;overflow:visible;visibility:visible;opacity:1;isolation:auto;mix-blend-mode:normal;color-interpolation:sRGB;color-interpolation-filters:linearRGB;solid-color:#000000;solid-opacity:1;fill-rule:nonzero;stroke-width:0.99999994;stroke-linecap:round;stroke-linejoin:round;stroke-miterlimit:4;stroke-dasharray:none;stroke-dashoffset:0;color-rendering:auto;image-rendering:auto;shape-rendering:auto;text-rendering:auto;enable-background:accumulate" d="m 23,1006.3622 c 12.708472,0 23,10.2916 23,23 0,12.7085 -10.291528,23 -23,23 -12.708472,0 -23,-10.2915 -23,-23 0,-12.7084 10.291528,-23 23,-23 z m -9.5,18 c -0.276131,0 -0.499972,0.2239 -0.5,0.5 l 0,1.5 -2.5,0 c -0.276131,0 -0.499972,0.2239 -0.5,0.5 l 0,1.5 -1.5,0 c -0.2761309,0 -0.4999724,0.2239 -0.5,0.5 l 0,2 c 2.76e-5,0.2761 0.2238691,0.5 0.5,0.5 l 1.5,0 0,1.5 c 2.8e-5,0.2761 0.223869,0.5 0.5,0.5 l 2.5,0 0,1.5 c 2.8e-5,0.2761 0.223869,0.5 0.5,0.5 l 3,0 c 0.276131,0 0.499972,-0.2239 0.5,-0.5 l 0,-3.5 6,0 6,0 0,3.5 c 2.8e-5,0.2761 0.223869,0.5 0.5,0.5 l 3,0 c 0.276131,0 0.499972,-0.2239 0.5,-0.5 l 0,-1.5 2.5,0 c 0.276131,0 0.499972,-0.2239 0.5,-0.5 l 0,-1.5 1.5,0 c 0.276131,0 0.499972,-0.2239 0.5,-0.5 l 0,-1 0,-1 c -2.8e-5,-0.2761 -0.223869,-0.5 -0.5,-0.5 l -1.5,0 0,-1.5 c -2.8e-5,-0.2761 -0.223869,-0.5 -0.5,-0.5 l -2.5,0 0,-1.5 c -2.8e-5,-0.2761 -0.223869,-0.5 -0.5,-0.5 l -3,0 c -0.276131,0 -0.499972,0.2239 -0.5,0.5 l 0,3.5 -6,0 -6,0 0,-3.5 c -2.8e-5,-0.2761 -0.223869,-0.5 -0.5,-0.5 z m 0.5,1 2,0 0,3.418 c -0.009,0.054 -0.009,0.1097 0,0.164 l 0,1.836 c -0.009,0.054 -0.009,0.1097 0,0.164 l 0,3.418 -2,0 0,-1.5 0,-6 z m 16,0 2,0 0,1.5 0,6 0,1.5 -2,0 0,-3.4219 c 0.0086,-0.053 0.0086,-0.1071 0,-0.1601 l 0,-1.8399 c 0.0086,-0.053 0.0086,-0.1071 0,-0.1601 z m -19,2 2,0 0,5 -2,0 0,-1.4219 c 0.0086,-0.053 0.0086,-0.1071 0,-0.1601 l 0,-1.8399 c 0.0086,-0.053 0.0086,-0.1071 0,-0.1601 z m 22,0 2,0 0,5 -2,0 z m -24,2 1,0 0,1 -1,0 z m 8,0 6,0 6,0 0,1 -6,0 -6,0 z m 19,0 1,0 0,0.5 0,0.5 -1,0 z"></path></g></g>
</svg>
</g><g opacity="1" transform="rotate(0 112.3623 274.99)">
<svg width="146.6754" height="25.4775" x="112.3623" y="274.99" version="1.1" preserveAspectRatio="none" viewBox="4 -30.12 179.44 31.16">
  <g transform="matrix(1 0 0 1 0 0)" class="text"><path d="M4-29.12L21.68-29.12L21.68-24.64L8.68-24.64L8.68-16.44L20-16.44L20-12L8.68-12L8.68 0L4 0L4-29.12Z M30.92-29.12L35.60-29.12L35.60 0L30.92 0L30.92-29.12Z M44.72-29.12L64.20-29.12L64.20-24.64L56.68-24.64L56.68 0L52.04 0L52.04-24.64L44.72-24.64L44.72-29.12Z M94.40-29.12L99.04-29.12L99.04 1.04L98.92 1.04L77.92-19.32L78.04 0L73.32 0L73.32-30.12L73.56-30.12L94.48-9.52L94.40-29.12Z M110.28-29.12L129.60-29.12L129.60-24.64L114.96-24.64L114.96-16.88L128-16.88L128-12.40L114.96-12.40L114.96-4.48L130.16-4.48L130.16 0L110.28 0L110.28-29.12Z M155.08-23.20Q151.32-25.16 148.40-25.16L148.40-25.16Q146.24-25.16 144.98-24.20Q143.72-23.24 143.72-21.56L143.72-21.56Q143.72-19.92 145.30-18.82Q146.88-17.72 149.72-16.64L149.72-16.64Q151.88-15.88 153.42-14.90Q154.96-13.92 155.96-12.24Q156.96-10.56 156.96-8L156.96-8Q156.96-5.68 155.80-3.80Q154.64-1.92 152.44-0.80Q150.24 0.32 147.24 0.32L147.24 0.32Q144.60 0.32 142.04-0.50Q139.48-1.32 137.48-2.76L137.48-2.76L139.56-6.40Q141.04-5.28 143.06-4.54Q145.08-3.80 146.80-3.80L146.80-3.80Q148.92-3.80 150.52-4.82Q152.12-5.84 152.12-7.96L152.12-7.96Q152.12-9.64 150.78-10.76Q149.44-11.88 147.04-12.80L147.04-12.80Q144.56-13.72 142.92-14.62Q141.28-15.52 140.10-17.14Q138.92-18.76 138.92-21.20L138.92-21.20Q138.92-24.76 141.34-26.94Q143.76-29.12 147.72-29.28L147.72-29.28Q150.60-29.28 152.78-28.62Q154.96-27.96 156.84-26.76L156.84-26.76L155.08-23.20Z M181.56-23.20Q177.80-25.16 174.88-25.16L174.88-25.16Q172.72-25.16 171.46-24.20Q170.20-23.24 170.20-21.56L170.20-21.56Q170.20-19.92 171.78-18.82Q173.36-17.72 176.20-16.64L176.20-16.64Q178.36-15.88 179.90-14.90Q181.44-13.92 182.44-12.24Q183.44-10.56 183.44-8L183.44-8Q183.44-5.68 182.28-3.80Q181.12-1.92 178.92-0.80Q176.72 0.32 173.72 0.32L173.72 0.32Q171.08 0.32 168.52-0.50Q165.96-1.32 163.96-2.76L163.96-2.76L166.04-6.40Q167.52-5.28 169.54-4.54Q171.56-3.80 173.28-3.80L173.28-3.80Q175.40-3.80 177-4.82Q178.60-5.84 178.60-7.96L178.60-7.96Q178.60-9.64 177.26-10.76Q175.92-11.88 173.52-12.80L173.52-12.80Q171.04-13.72 169.40-14.62Q167.76-15.52 166.58-17.14Q165.40-18.76 165.40-21.20L165.40-21.20Q165.40-24.76 167.82-26.94Q170.24-29.12 174.20-29.28L174.20-29.28Q177.08-29.28 179.26-28.62Q181.44-27.96 183.32-26.76L183.32-26.76L181.56-23.20Z"></path></g>
</svg>
</g><g opacity="1" transform="rotate(0 0 186.87210000000002)">
<svg width="371.4" height="67.0462" x="0" y="186.87210000000002" version="1.1" preserveAspectRatio="none" viewBox="3.8 -30.6 171.28 30.919999999999998">
  <g transform="matrix(1 0 0 1 0 0)" class="companyName"><path d="M18.96-15.52Q21.28-14.44 22.58-12.70Q23.88-10.96 23.88-8.68L23.88-8.68Q23.88-4.20 20.94-2.10Q18 0 13.60 0L13.60 0L3.80 0L3.80-29.44L12.44-29.44Q17.12-29.44 19.80-27.54Q22.48-25.64 22.48-22.04L22.48-22.04Q22.48-19.84 21.56-18.18Q20.64-16.52 18.96-15.52L18.96-15.52ZM9.60-23.84L9.60-17.40L13.12-17.40Q14.72-17.40 15.60-18.38Q16.48-19.36 16.48-20.80L16.48-20.80Q16.48-22.28 15.48-23.06Q14.48-23.84 12.72-23.84L12.72-23.84L9.60-23.84ZM13.32-5.40Q15.36-5.40 16.62-6.22Q17.88-7.04 17.88-8.68L17.88-8.68Q17.88-11.80 12.92-11.80L12.92-11.80L9.60-11.80L9.60-5.40L13.32-5.40Z M29.68-29.44L49.76-29.44L49.76-23.84L35.48-23.84L35.48-17.56L48.12-17.56L48.12-11.96L35.48-11.96L35.48-5.60L50.32-5.60L50.32 0L29.68 0L29.68-29.44Z M54.32-29.44L74.16-29.44L74.16-23.84L67-23.84L67 0L61.20 0L61.20-23.84L54.32-23.84L54.32-29.44Z M94.20 0L91.92-5.76L82.16-5.76L79.76 0L74.04 0L87.32-30.60L87.64-30.60L100.92 0L94.20 0ZM84.20-10.64L90.00-10.64L87.16-17.80L84.20-10.64Z M116.40-14.68Q116.40-18.68 118.42-22.16Q120.44-25.64 123.90-27.70Q127.36-29.76 131.40-29.76L131.40-29.76Q135.44-29.76 138.90-27.70Q142.36-25.64 144.42-22.16Q146.48-18.68 146.48-14.68L146.48-14.68Q146.48-10.60 144.42-7.16Q142.36-3.72 138.90-1.70Q135.44 0.32 131.40 0.32L131.40 0.32Q127.32 0.32 123.88-1.70Q120.44-3.72 118.42-7.16Q116.40-10.60 116.40-14.68L116.40-14.68ZM122.40-14.68Q122.40-12.12 123.62-9.96Q124.84-7.80 126.94-6.54Q129.04-5.28 131.60-5.28L131.60-5.28Q134.08-5.28 136.12-6.54Q138.16-7.80 139.32-9.94Q140.48-12.08 140.48-14.68L140.48-14.68Q140.48-17.32 139.28-19.48Q138.08-21.64 136.02-22.90Q133.96-24.16 131.44-24.16L131.44-24.16Q128.92-24.16 126.86-22.90Q124.80-21.64 123.60-19.48Q122.40-17.32 122.40-14.68L122.40-14.68Z M175.08 0L167.60 0L161.00-10.16L155.28 0L148.08 0L157.72-15.20L148.48-29.44L155.88-29.44L162.24-19.68L167.76-29.44L174.80-29.44L165.44-14.80L175.08 0Z"></path></g>
</svg>
</g></svg>